<mxfile host="app.diagrams.net" agent="Mozilla/5.0 (Windows NT 10.0; Win64; x64) AppleWebKit/537.36 (KHTML, like Gecko) Chrome/137.0.0.0 Safari/537.36 Edg/137.0.0.0" version="27.1.4">
  <diagram name="Page-1" id="racIG1Koq0fIB6oXrUAD">
    <mxGraphModel dx="1034" dy="570" grid="1" gridSize="10" guides="1" tooltips="1" connect="1" arrows="1" fold="1" page="1" pageScale="1" pageWidth="850" pageHeight="1100" math="0" shadow="0">
      <root>
        <mxCell id="0" />
        <mxCell id="1" parent="0" />
        <mxCell id="obUF7fyJnzPJlAP4EL-M-4" value="" style="edgeStyle=orthogonalEdgeStyle;rounded=0;orthogonalLoop=1;jettySize=auto;html=1;labelBackgroundColor=none;strokeColor=#09555B;fontColor=default;" parent="1" source="obUF7fyJnzPJlAP4EL-M-1" target="obUF7fyJnzPJlAP4EL-M-3" edge="1">
          <mxGeometry relative="1" as="geometry" />
        </mxCell>
        <mxCell id="obUF7fyJnzPJlAP4EL-M-1" value="Start" style="ellipse;whiteSpace=wrap;html=1;labelBackgroundColor=none;fillColor=#FAD9D5;strokeColor=#D0CEE2;fontColor=#1A1A1A;fontSize=20;" parent="1" vertex="1">
          <mxGeometry x="365" y="20" width="120" height="80" as="geometry" />
        </mxCell>
        <mxCell id="obUF7fyJnzPJlAP4EL-M-6" value="" style="edgeStyle=orthogonalEdgeStyle;rounded=0;orthogonalLoop=1;jettySize=auto;html=1;labelBackgroundColor=none;strokeColor=#09555B;fontColor=default;" parent="1" source="obUF7fyJnzPJlAP4EL-M-3" target="obUF7fyJnzPJlAP4EL-M-5" edge="1">
          <mxGeometry relative="1" as="geometry" />
        </mxCell>
        <mxCell id="obUF7fyJnzPJlAP4EL-M-3" value="Input Number" style="shape=parallelogram;perimeter=parallelogramPerimeter;whiteSpace=wrap;html=1;fixedSize=1;labelBackgroundColor=none;fillColor=#FAD9D5;strokeColor=#D0CEE2;fontColor=#1A1A1A;fontSize=20;" parent="1" vertex="1">
          <mxGeometry x="310" y="140" width="230" height="60" as="geometry" />
        </mxCell>
        <mxCell id="obUF7fyJnzPJlAP4EL-M-8" value="" style="edgeStyle=orthogonalEdgeStyle;rounded=0;orthogonalLoop=1;jettySize=auto;html=1;labelBackgroundColor=none;strokeColor=#09555B;fontColor=default;" parent="1" source="obUF7fyJnzPJlAP4EL-M-5" target="obUF7fyJnzPJlAP4EL-M-7" edge="1">
          <mxGeometry relative="1" as="geometry">
            <Array as="points">
              <mxPoint x="130" y="310" />
            </Array>
          </mxGeometry>
        </mxCell>
        <mxCell id="obUF7fyJnzPJlAP4EL-M-10" value="" style="edgeStyle=orthogonalEdgeStyle;rounded=0;orthogonalLoop=1;jettySize=auto;html=1;labelBackgroundColor=none;strokeColor=#09555B;fontColor=default;" parent="1" source="obUF7fyJnzPJlAP4EL-M-5" target="obUF7fyJnzPJlAP4EL-M-9" edge="1">
          <mxGeometry relative="1" as="geometry">
            <Array as="points">
              <mxPoint x="720" y="310" />
            </Array>
          </mxGeometry>
        </mxCell>
        <mxCell id="obUF7fyJnzPJlAP4EL-M-5" value="&lt;font style=&quot;font-size: 14px;&quot;&gt;Check if remainder of number/2 is equal to 0&lt;/font&gt;" style="rhombus;whiteSpace=wrap;html=1;labelBackgroundColor=none;fillColor=#FAD9D5;strokeColor=#D0CEE2;fontColor=#1A1A1A;" parent="1" vertex="1">
          <mxGeometry x="320" y="240" width="210" height="140" as="geometry" />
        </mxCell>
        <mxCell id="obUF7fyJnzPJlAP4EL-M-17" style="edgeStyle=orthogonalEdgeStyle;rounded=0;orthogonalLoop=1;jettySize=auto;html=1;exitX=0.5;exitY=1;exitDx=0;exitDy=0;entryX=0.5;entryY=0;entryDx=0;entryDy=0;labelBackgroundColor=none;strokeColor=#09555B;fontColor=default;" parent="1" source="obUF7fyJnzPJlAP4EL-M-7" target="obUF7fyJnzPJlAP4EL-M-15" edge="1">
          <mxGeometry relative="1" as="geometry" />
        </mxCell>
        <mxCell id="obUF7fyJnzPJlAP4EL-M-7" value="Number is even" style="shape=parallelogram;perimeter=parallelogramPerimeter;whiteSpace=wrap;html=1;fixedSize=1;labelBackgroundColor=none;fillColor=#FAD9D5;strokeColor=#D0CEE2;fontColor=#1A1A1A;fontSize=18;" parent="1" vertex="1">
          <mxGeometry x="40" y="340" width="180" height="70" as="geometry" />
        </mxCell>
        <mxCell id="obUF7fyJnzPJlAP4EL-M-16" style="edgeStyle=orthogonalEdgeStyle;rounded=0;orthogonalLoop=1;jettySize=auto;html=1;exitX=0.5;exitY=1;exitDx=0;exitDy=0;entryX=0.5;entryY=0;entryDx=0;entryDy=0;labelBackgroundColor=none;strokeColor=#09555B;fontColor=default;" parent="1" source="obUF7fyJnzPJlAP4EL-M-9" target="obUF7fyJnzPJlAP4EL-M-15" edge="1">
          <mxGeometry relative="1" as="geometry" />
        </mxCell>
        <mxCell id="obUF7fyJnzPJlAP4EL-M-9" value="Number is odd" style="shape=parallelogram;perimeter=parallelogramPerimeter;whiteSpace=wrap;html=1;fixedSize=1;labelBackgroundColor=none;fillColor=#FAD9D5;strokeColor=#D0CEE2;fontColor=#1A1A1A;fontSize=18;" parent="1" vertex="1">
          <mxGeometry x="620" y="340" width="180" height="70" as="geometry" />
        </mxCell>
        <mxCell id="obUF7fyJnzPJlAP4EL-M-11" value="" style="shape=waypoint;sketch=0;size=6;pointerEvents=1;points=[];fillColor=#FAD9D5;resizable=0;rotatable=0;perimeter=centerPerimeter;snapToPoint=1;labelBackgroundColor=none;strokeColor=#D0CEE2;fontColor=#1A1A1A;" parent="1" vertex="1">
          <mxGeometry x="415" y="470" width="20" height="20" as="geometry" />
        </mxCell>
        <mxCell id="obUF7fyJnzPJlAP4EL-M-13" value="" style="shape=waypoint;sketch=0;size=6;pointerEvents=1;points=[];fillColor=#FAD9D5;resizable=0;rotatable=0;perimeter=centerPerimeter;snapToPoint=1;labelBackgroundColor=none;strokeColor=#D0CEE2;fontColor=#1A1A1A;" parent="1" vertex="1">
          <mxGeometry x="415" y="460" width="20" height="20" as="geometry" />
        </mxCell>
        <mxCell id="obUF7fyJnzPJlAP4EL-M-15" value="End" style="ellipse;whiteSpace=wrap;html=1;labelBackgroundColor=none;fillColor=#FAD9D5;strokeColor=#D0CEE2;fontColor=#1A1A1A;fontSize=20;" parent="1" vertex="1">
          <mxGeometry x="365" y="480" width="120" height="80" as="geometry" />
        </mxCell>
        <mxCell id="obUF7fyJnzPJlAP4EL-M-22" value="Yes" style="text;html=1;align=center;verticalAlign=middle;whiteSpace=wrap;rounded=0;fontColor=#1A1A1A;fontSize=16;" parent="1" vertex="1">
          <mxGeometry x="150" y="280" width="60" height="30" as="geometry" />
        </mxCell>
        <mxCell id="obUF7fyJnzPJlAP4EL-M-23" value="Text" style="text;html=1;align=center;verticalAlign=middle;whiteSpace=wrap;rounded=0;fontColor=#1A1A1A;fontSize=16;" parent="1" vertex="1">
          <mxGeometry x="630" y="280" width="60" height="30" as="geometry" />
        </mxCell>
      </root>
    </mxGraphModel>
  </diagram>
</mxfile>
